# xmcd CD database file
#
# Track frame offsets:
#	150
#	7540
#	20037
#	27845
#	40905
#	50102
#	60372
#
# Disc length: 966 seconds
#
# Revision: 0
# Processed by: cddbd v1.5PL3 Copyright (c) Steve Scherf et al.
# Submitted via: CDex 1.50beta9
#
DISCID=4b03c407
DTITLE=SPREAD - UNKNOWN PLACE
DYEAR=1997
DGENRE=New Age
TTITLE0=JUMP
TTITLE1=DON'T WORRY
TTITLE2=DANCE
TTITLE3=ROCKET PLACE
TTITLE4=NO WAY
TTITLE5=MY SOUL
TTITLE6=TEARS
EXTD=YEAR: 1997
EXTT0=
EXTT1=
EXTT2=
EXTT3=
EXTT4=
EXTT5=
EXTT6=
PLAYORDER=
